<svg xmlns="http://www.w3.org/2000/svg" viewBox="0 0 512 512">
  <defs>
    <linearGradient id="g" x1="0" y1="0" x2="1" y2="1">
      <stop offset="0" stop-color="#7c5cff"/>
      <stop offset="1" stop-color="#ff5c9a"/>
    </linearGradient>
  </defs>
  <rect width="512" height="512" rx="112" fill="#14121f"/>
  <rect x="64" y="64" width="384" height="384" rx="96" fill="url(#g)"/>
  <path d="M150 220c0-33 27-60 60-60h92c33 0 60 27 60 60v58c0 41-33 74-74 74-23 0-38-12-50-28h-36c-12 16-27 28-50 28-41 0-74-33-74-74v-58z" transform="translate(0 4)" fill="#14121f"/>
  <rect x="190" y="232" width="56" height="16" rx="8" fill="#fff"/>
  <rect x="210" y="212" width="16" height="56" rx="8" fill="#fff"/>
  <circle cx="312" cy="226" r="13" fill="#fff"/>
  <circle cx="338" cy="256" r="13" fill="#fff"/>
</svg>
